<mxfile host="app.diagrams.net" modified="2022-04-10T13:59:16.147Z" agent="5.0 (Linux; Android 12; SM-F926N) AppleWebKit/537.36 (KHTML, like Gecko) Chrome/100.0.4896.79 Mobile Safari/537.36" etag="79BjY5BoMiEw2VIESvHo" version="17.4.2" type="github">
  <diagram id="lKLa5IBVYI6nlQgQq4Vg" name="Page-1">
    <mxGraphModel dx="640" dy="676" grid="0" gridSize="10" guides="1" tooltips="1" connect="1" arrows="1" fold="1" page="0" pageScale="1" pageWidth="827" pageHeight="1169" math="0" shadow="0">
      <root>
        <mxCell id="0" />
        <mxCell id="1" parent="0" />
        <mxCell id="ndqQEhta4aHcwLaEQJGY-1" value="" style="rounded=0;whiteSpace=wrap;html=1;hachureGap=4;" parent="1" vertex="1">
          <mxGeometry x="231" y="225" width="167" height="116" as="geometry" />
        </mxCell>
      </root>
    </mxGraphModel>
  </diagram>
</mxfile>
